<svg width="102" height="102" viewBox="0 0 102 102" fill="none" xmlns="http://www.w3.org/2000/svg">
<path d="M19.6607 23.5482L19.3575 23.8994C19.2808 23.9882 19.194 23.9908 19.0972 23.9071L16.2996 21.4918L9.57216 19.7842C9.43345 19.749 9.40941 19.6789 9.50003 19.574L9.87645 19.138C9.93919 19.0653 10.0364 19.0506 10.1682 19.0939L15.8013 20.5754L15.8536 20.5148L13.556 15.1701C13.4939 15.046 13.4943 14.9477 13.557 14.875L13.9439 14.4269C14.0206 14.3381 14.0934 14.3517 14.1624 14.4676L16.8224 20.8862L19.62 23.3016C19.7169 23.3852 19.7304 23.4674 19.6607 23.5482Z" fill="black"/>
<path d="M27.2698 16.6288L24.65 18.7071C24.1069 19.138 23.5506 19.3206 22.9811 19.255C22.42 19.1827 21.9207 18.8709 21.4831 18.3193L19.2358 15.4865C18.7982 14.935 18.6081 14.3778 18.6654 13.815C18.731 13.2455 19.0354 12.7453 19.5786 12.3144L20.6565 11.4592C21.1997 11.0283 21.756 10.8457 22.3255 10.9113C22.8949 10.9769 23.3984 11.2855 23.836 11.837L25.0989 13.4289C25.1784 13.5292 25.1681 13.6191 25.0678 13.6987L21.3575 16.6421C21.2823 16.7018 21.2746 16.7692 21.3342 16.8444L22.0999 17.8096C22.4115 18.2023 22.7537 18.4278 23.1267 18.486C23.493 18.5358 23.8683 18.4082 24.2527 18.1032L26.8223 16.0647C26.9142 15.9918 26.9966 16.0013 27.0695 16.0932L27.2983 16.3815C27.3712 16.4734 27.3617 16.5558 27.2698 16.6288ZM20.9598 16.1407L24.0809 13.6647C24.1561 13.605 24.1639 13.5376 24.1042 13.4624L23.2192 12.3468C22.9076 11.954 22.5687 11.7328 22.2024 11.6829C21.8295 11.6248 21.4508 11.7482 21.0664 12.0531L20.0762 12.8387C19.6918 13.1437 19.4855 13.4843 19.4573 13.8607C19.4225 14.2287 19.5609 14.6091 19.8724 15.0018L20.7575 16.1174C20.8171 16.1926 20.8846 16.2004 20.9598 16.1407Z" fill="black"/>
<path d="M32.0564 13.8711L31.1483 14.3442C30.5334 14.6645 29.9525 14.7386 29.4058 14.5663C28.8685 14.3892 28.4372 13.9885 28.112 13.3641L26.4413 10.1572C26.1161 9.53281 26.0348 8.94972 26.1976 8.4079C26.3698 7.86115 26.7633 7.42761 27.3782 7.10728L30.3865 5.54013C30.4811 5.49085 30.558 5.52297 30.6171 5.63649L34.2097 12.5328C34.2689 12.6463 34.2511 12.7277 34.1565 12.777L33.745 12.9914C33.641 13.0456 33.5594 13.0159 33.5002 12.9024L33.2046 12.3348L33.1478 12.3644C33.1581 12.9844 32.7943 13.4867 32.0564 13.8711ZM32.5319 11.0435L30.2181 6.60208C30.1737 6.51694 30.1043 6.49901 30.0097 6.54829L27.7677 7.71626C27.3325 7.94295 27.0655 8.23842 26.9666 8.60265C26.8676 8.96689 26.934 9.37132 27.1656 9.81594L28.8067 12.9661C29.0383 13.4107 29.3317 13.6969 29.6869 13.8246C30.0421 13.9522 30.4372 13.9027 30.8724 13.676L31.7947 13.1956C32.2488 12.959 32.542 12.6559 32.6742 12.2864C32.8109 11.9024 32.7635 11.4882 32.5319 11.0435Z" fill="black"/>
<path d="M37.0797 11.5789L36.6395 11.7256C36.5383 11.7593 36.4675 11.7155 36.427 11.5941L33.968 4.21708C33.9276 4.09565 33.9579 4.01807 34.0591 3.98434L34.4993 3.83761C34.6106 3.80051 34.6865 3.84267 34.727 3.9641L34.9395 4.60162L35.0002 4.58138C35.0407 4.33177 35.1756 4.07879 35.405 3.82244C35.631 3.55596 35.9514 3.35358 36.3663 3.21528L36.9583 3.01796C37.0696 2.98086 37.1438 3.01796 37.1809 3.12928L37.3023 3.49357C37.3395 3.60488 37.3007 3.67403 37.186 3.70101L36.4726 3.93881C35.9767 4.10409 35.6377 4.38574 35.4556 4.78377C35.2835 5.17842 35.2835 5.63379 35.4556 6.14987L37.1859 11.3411C37.2264 11.4625 37.191 11.5418 37.0797 11.5789Z" fill="black"/>
<path d="M43.8841 9.89674L41.1433 10.3855C41.0278 10.4061 40.9597 10.3586 40.9391 10.2431L40.8745 9.88085C40.8558 9.77584 40.9042 9.71304 41.0197 9.69244L43.6817 9.21772C44.6268 9.04918 45.0338 8.59737 44.9027 7.8623L44.8353 7.48427C44.7136 6.8017 44.34 6.40785 43.7144 6.30269L41.6107 5.89775C41.0377 5.78323 40.6104 5.60481 40.3288 5.36248C40.0577 5.11828 39.8772 4.74416 39.7873 4.24011C39.5682 3.01149 40.136 2.2764 41.4906 2.03482L44.0424 1.57977C44.1579 1.55917 44.2259 1.60662 44.2465 1.72214L44.3111 2.08442C44.3299 2.18943 44.2815 2.25223 44.166 2.27283L41.693 2.71384C41.2624 2.79062 40.9538 2.94318 40.767 3.17153C40.5906 3.398 40.525 3.63725 40.5699 3.88927L40.6345 4.25156C40.6869 4.54558 40.8069 4.76256 40.9944 4.90249C41.1924 5.04054 41.4697 5.13736 41.8263 5.19295L43.9357 5.6294C44.5136 5.71054 44.9236 5.91371 45.1658 6.2389C45.4166 6.55173 45.5982 7.02317 45.7105 7.65323C45.8229 8.28329 45.7277 8.78242 45.425 9.15062C45.1328 9.51695 44.6191 9.76565 43.8841 9.89674Z" fill="black"/>
<path d="M55.768 9.63785L54.3991 9.49815C53.7094 9.42775 53.1835 9.17036 52.8214 8.72597C52.4699 8.28266 52.3299 7.71082 52.4014 7.01046L52.7685 3.41314C52.84 2.71278 53.0926 2.18102 53.5264 1.81785C53.9708 1.45576 54.5379 1.30992 55.2276 1.38031L56.5965 1.52002C57.2863 1.59041 57.8122 1.8478 58.1743 2.2922C58.5363 2.73659 58.6816 3.30897 58.6102 4.00933L58.243 7.60664C58.1716 8.30701 57.9136 8.83823 57.4692 9.20031C57.0248 9.5624 56.4578 9.70825 55.768 9.63785ZM54.5359 8.78836L55.7775 8.91507C56.2656 8.96489 56.6505 8.87015 56.9323 8.63085C57.2257 8.38203 57.3979 8.00825 57.4488 7.5095L57.8127 3.94402C57.8636 3.44528 57.7699 3.04973 57.5317 2.75736C57.3052 2.45547 56.9479 2.27962 56.4597 2.2298L55.2182 2.10309C54.7301 2.05327 54.3446 2.15332 54.0617 2.40323C53.78 2.64252 53.6137 3.01154 53.5628 3.51029L53.1989 7.07577C53.148 7.57451 53.2358 7.97483 53.4623 8.27672C53.6899 8.568 54.0478 8.73855 54.5359 8.78836Z" fill="black"/>
<path d="M63.8845 2.81284L65.2925 3.1838C65.4163 3.21641 65.4632 3.28944 65.4333 3.40291L65.3396 3.75876C65.3097 3.87222 65.2328 3.91265 65.1091 3.88004L63.7011 3.50908C63.6083 3.48462 63.5496 3.51881 63.5252 3.61164L61.7152 10.4812C61.6826 10.605 61.6096 10.6519 61.4961 10.622L61.0474 10.5038C60.934 10.4739 60.8935 10.3971 60.9262 10.2733L62.7361 3.40374C62.7606 3.31091 62.7264 3.25226 62.6335 3.22781L61.6433 2.96691C61.5299 2.93702 61.4881 2.86534 61.518 2.75188L61.6117 2.39603C61.6416 2.28256 61.7133 2.24078 61.8268 2.27067L62.817 2.53157C62.9098 2.55602 62.9684 2.52184 62.9929 2.42901L63.1723 1.74824C63.5527 0.304186 64.398 -0.245272 65.7079 0.0998667L66.0792 0.197701C66.203 0.230313 66.25 0.303349 66.2201 0.41681L66.1263 0.772666C66.0964 0.886127 66.0196 0.926552 65.8958 0.89394L65.6018 0.816488C65.1377 0.694195 64.7802 0.732366 64.5293 0.931001C64.2784 1.12964 64.0864 1.48166 63.9532 1.98708L63.782 2.6369C63.7575 2.72974 63.7917 2.78838 63.8845 2.81284Z" fill="black"/>
<path d="M73.3172 15.8972L69.0056 13.4778C68.9126 13.4256 68.8974 13.3437 68.96 13.2321L73.8066 4.59498C73.8692 4.48335 73.9471 4.45364 74.0401 4.50583L78.3517 6.92521C78.4633 6.98785 78.4904 7.07033 78.433 7.17265L78.2529 7.49358C78.1955 7.5959 78.111 7.61575 77.9993 7.55311L74.3854 5.52522C74.2924 5.47302 74.2224 5.48878 74.1754 5.5725L72.3746 8.78177C72.3276 8.86549 72.3506 8.93345 72.4437 8.98565L75.6669 10.7943C75.7692 10.8517 75.7917 10.9316 75.7342 11.0339L75.5542 11.3548C75.4967 11.4572 75.4169 11.4796 75.3145 11.4222L72.0913 9.61355C71.9983 9.56135 71.9283 9.57711 71.8813 9.66083L69.9865 13.0375C69.9396 13.1213 69.9626 13.1892 70.0556 13.2414L73.6695 15.2693C73.7811 15.3319 73.8082 15.4144 73.7508 15.5168L73.5707 15.8377C73.5133 15.94 73.4288 15.9598 73.3172 15.8972Z" fill="black"/>
<path d="M75.2425 17.1957L74.7838 16.8213C74.6764 16.7337 74.6962 16.6672 74.8433 16.622L79.1496 15.0148L79.8467 10.6685C79.8615 10.5154 79.9226 10.4827 80.0301 10.5703L80.4763 10.9345C80.5672 11.0087 80.597 11.1156 80.5656 11.2553L79.9026 14.9272L79.9522 14.9676L83.3547 13.5315C83.4935 13.4795 83.6042 13.4873 83.6868 13.5547L84.1331 13.9189C84.2405 14.0066 84.2207 14.073 84.0736 14.1182L80.0127 15.6779L79.3057 20.264C79.2826 20.4104 79.2215 20.4431 79.1223 20.3622L78.6265 19.9575C78.5604 19.9035 78.543 19.8067 78.5744 19.6671L79.2642 15.8105L79.2146 15.7701L75.5746 17.2189C75.4358 17.2708 75.3251 17.2631 75.2425 17.1957Z" fill="black"/>
<path d="M78.8858 23.6096L78.583 23.2581C78.5134 23.1772 78.523 23.0985 78.6119 23.022L86.3219 16.3807C86.4189 16.2971 86.5022 16.2958 86.5718 16.3766L86.8746 16.7282C86.9512 16.8171 86.941 16.9033 86.844 16.9868L86.3591 17.4045L86.4009 17.453C87.0161 17.3173 87.5882 17.5565 88.1173 18.1708L88.8274 18.9951C89.2729 19.5123 89.4709 20.0527 89.4214 20.6163C89.3718 21.1799 89.0804 21.6914 88.547 22.1508L85.8072 24.5108C85.2738 24.9702 84.7248 25.1827 84.1601 25.1482C83.5954 25.1138 83.0903 24.8379 82.6448 24.3207L81.9347 23.4963C81.4056 22.8821 81.2538 22.2808 81.4791 21.6926L81.4373 21.6441L79.134 23.6281C79.0451 23.7047 78.9624 23.6985 78.8858 23.6096ZM82.428 22.9658L83.1172 23.7659C83.4374 24.1377 83.7821 24.3335 84.1512 24.3534C84.5354 24.3745 84.9214 24.2179 85.3094 23.8838L88.0006 21.5656C88.3885 21.2314 88.5965 20.8763 88.6245 20.5002C88.6676 20.1253 88.529 19.7519 88.2087 19.3801L87.5195 18.5801C87.1854 18.1921 86.8158 17.9755 86.4107 17.9302C86.0207 17.8861 85.6358 18.0276 85.256 18.3548L82.5405 20.6938C82.1607 21.021 81.9596 21.3842 81.9375 21.7834C81.9304 22.1837 82.0939 22.5779 82.428 22.9658Z" fill="black"/>
<path d="M88.0422 32.5202L86.3824 29.6172C86.0383 29.0153 85.9416 28.4379 86.0923 27.8848C86.2483 27.341 86.6318 26.8944 87.243 26.5449L90.3821 24.7502C90.9933 24.4007 91.5728 24.2967 92.1205 24.4382C92.6736 24.5889 93.1222 24.9652 93.4663 25.5671L94.1493 26.7616C94.4934 27.3635 94.5902 27.941 94.4395 28.494C94.2888 29.0471 93.9078 29.4984 93.2967 29.8478L91.5327 30.8564C91.4215 30.9199 91.3342 30.8961 91.2707 30.785L88.92 26.6735C88.8723 26.5902 88.8068 26.5723 88.7235 26.62L87.654 27.2315C87.2187 27.4803 86.9443 27.7847 86.8306 28.1446C86.7262 28.4992 86.7957 28.8895 87.0393 29.3154L88.6673 32.1629C88.7255 32.2647 88.7037 32.3448 88.6018 32.403L88.2824 32.5857C88.1805 32.6439 88.1005 32.6221 88.0422 32.5202ZM89.4756 26.3559L91.453 29.8145C91.5007 29.8978 91.5662 29.9157 91.6495 29.868L92.8857 29.1612C93.3209 28.9124 93.5908 28.6107 93.6952 28.2561C93.8089 27.8962 93.744 27.5033 93.5004 27.0773L92.8731 25.98C92.6295 25.554 92.3238 25.2988 91.956 25.2142C91.5974 25.1243 91.2005 25.2038 90.7653 25.4526L89.5291 26.1594C89.4458 26.207 89.4279 26.2725 89.4756 26.3559Z" fill="black"/>
<path d="M89.3088 35.298L89.1429 34.8647C89.1048 34.7651 89.1454 34.6924 89.265 34.6466L96.5267 31.8657C96.6462 31.8199 96.7251 31.8468 96.7632 31.9464L96.9291 32.3797C96.9711 32.4893 96.9323 32.567 96.8128 32.6128L96.1852 32.8531L96.2081 32.9128C96.4593 32.9423 96.7179 33.066 96.9841 33.2839C97.2603 33.4979 97.4766 33.8092 97.633 34.2176L97.8561 34.8003C97.8981 34.9099 97.8643 34.9856 97.7547 35.0276L97.3961 35.1649C97.2866 35.2069 97.2158 35.1712 97.1838 35.0578L96.9148 34.3555C96.7279 33.8674 96.4316 33.5411 96.026 33.3767C95.6241 33.2222 95.1692 33.2422 94.6612 33.4367L89.5511 35.3937C89.4316 35.4395 89.3508 35.4076 89.3088 35.298Z" fill="black"/>
<path d="M99.9645 37.0834L101.449 36.6908C101.563 36.6608 101.633 36.6973 101.661 36.8005L101.783 37.2645C101.811 37.3676 101.767 37.4342 101.654 37.4642L100.169 37.8568C100.045 37.8896 99.9698 37.8544 99.9425 37.7512L99.8198 37.2872C99.7925 37.1841 99.8408 37.1161 99.9645 37.0834ZM90.9619 39.4638L98.4795 37.4761C98.6033 37.4433 98.6788 37.4785 98.7061 37.5817L98.8247 38.0302C98.8547 38.1437 98.8078 38.2168 98.684 38.2495L91.1664 40.2372C91.0426 40.2699 90.9671 40.2347 90.9399 40.1316L90.8172 39.6676C90.7899 39.5644 90.8381 39.4965 90.9619 39.4638Z" fill="black"/>
<path d="M92.1395 48.0937L91.7195 44.7762C91.6324 44.0883 91.7645 43.5179 92.1157 43.0648C92.4683 42.6224 92.9937 42.357 93.6922 42.2685L97.2795 41.8144C97.978 41.7259 98.553 41.852 99.0047 42.1927C99.4577 42.5439 99.7278 43.0634 99.8149 43.7513L99.9877 45.1164C100.075 45.8042 99.9427 46.3746 99.5915 46.8277C99.2403 47.2807 98.7155 47.5514 98.0171 47.6399L96.0012 47.8951C95.8742 47.9112 95.8026 47.8557 95.7866 47.7287L95.1917 43.0302C95.1797 42.935 95.126 42.8934 95.0308 42.9054L93.8085 43.0602C93.3112 43.1232 92.941 43.299 92.698 43.5878C92.4656 43.8753 92.3802 44.2624 92.4418 44.7492L92.8538 48.0032C92.8686 48.1197 92.8177 48.1852 92.7013 48.2L92.3362 48.2462C92.2198 48.2609 92.1542 48.2101 92.1395 48.0937ZM95.8266 42.9498L96.327 46.9023C96.3391 46.9975 96.3927 47.0391 96.488 47.0271L97.9007 46.8482C98.3981 46.7852 98.763 46.61 98.9954 46.3226C99.2383 46.0338 99.329 45.646 99.2674 45.1592L99.1086 43.9052C99.047 43.4184 98.8625 43.0654 98.5553 42.8463C98.2585 42.6258 97.8615 42.5471 97.3641 42.61L95.9514 42.7889C95.8562 42.801 95.8146 42.8546 95.8266 42.9498Z" fill="black"/>
<path d="M92.1778 51.1418L92.2076 50.6788C92.2145 50.5723 92.2818 50.5232 92.4095 50.5314L100.169 51.0308C100.297 51.0391 100.358 51.0964 100.351 51.2028L100.321 51.6659C100.313 51.783 100.246 51.8374 100.118 51.8292L99.4794 51.7881L99.4753 51.8519C100.01 52.1856 100.251 52.7569 100.199 53.5659L100.131 54.6198C100.087 55.301 99.8502 55.8256 99.4203 56.1934C98.9905 56.5612 98.4243 56.7225 97.7218 56.6773L92.0375 56.3115C91.9098 56.3032 91.8493 56.2459 91.8562 56.1395L91.886 55.6764C91.8935 55.5593 91.9612 55.5049 92.0889 55.5131L97.7412 55.8769C98.2415 55.9091 98.6382 55.8063 98.9314 55.5687C99.2247 55.331 99.387 54.9674 99.4185 54.4777L99.4853 53.4399C99.5182 52.9289 99.4058 52.5155 99.1483 52.1997C98.9007 51.8951 98.5267 51.7268 98.0264 51.6946L92.3581 51.3298C92.2304 51.3215 92.1703 51.2589 92.1778 51.1418Z" fill="black"/>
<path d="M90.9428 63.1258L90.5853 63.0389C90.4713 63.0111 90.4281 62.9403 90.4558 62.8263L91.0001 60.5875C91.1639 59.9138 91.4907 59.4279 91.9803 59.1298C92.4674 58.842 93.053 58.7813 93.737 58.9477L97.2507 59.8019C97.9347 59.9682 98.4271 60.291 98.7277 60.7703C99.0258 61.2599 99.093 61.8416 98.9292 62.5153L98.3848 64.7541C98.3571 64.8681 98.2863 64.9112 98.1722 64.8835L97.7991 64.7928C97.6955 64.7676 97.6575 64.698 97.6852 64.584L98.2144 62.4074C98.3303 61.9306 98.2838 61.5351 98.0748 61.2208C97.8658 60.9065 97.5177 60.6902 97.0306 60.5717L93.5791 59.7326C93.092 59.6141 92.6834 59.6465 92.3535 59.8298C92.0235 60.013 91.8006 60.343 91.6846 60.8198L91.1554 62.9964C91.1277 63.1104 91.0569 63.1535 90.9428 63.1258Z" fill="black"/>
<path d="M87.7282 69.4474L89.6869 64.9079C89.7291 64.81 89.809 64.7864 89.9265 64.8371L99.0202 68.7607C99.1377 68.8115 99.1753 68.8858 99.1331 68.9837L97.1744 73.5232C97.1237 73.6407 97.0445 73.6762 96.9367 73.6298L96.5988 73.484C96.4911 73.4375 96.4626 73.3555 96.5133 73.2379L98.155 69.433C98.1973 69.3351 98.1743 69.2671 98.0862 69.2291L94.7073 67.7711C94.6192 67.7331 94.554 67.7631 94.5117 67.861L93.0475 71.2546C93.001 71.3623 92.9239 71.393 92.8161 71.3465L92.4782 71.2007C92.3705 71.1542 92.3399 71.0771 92.3864 70.9693L93.8506 67.5758C93.8929 67.4778 93.8699 67.4098 93.7818 67.3718L90.2266 65.8378C90.1385 65.7998 90.0733 65.8297 90.031 65.9277L88.3893 69.7326C88.3386 69.8501 88.2593 69.8857 88.1516 69.8392L87.8137 69.6934C87.706 69.6469 87.6775 69.5649 87.7282 69.4474Z" fill="black"/>
<path d="M90.8805 76.2413L89.222 75.2119C89.0226 75.0882 88.982 74.9311 89.1001 74.7408L89.4967 74.1019C89.6204 73.9025 89.782 73.8647 89.9814 73.9884L91.6399 75.0178C91.8393 75.1416 91.8771 75.3031 91.7533 75.5025L91.3568 76.1415C91.2387 76.3318 91.0799 76.3651 90.8805 76.2413Z" fill="black"/>
<path d="M82.2414 77.4801L82.5408 77.1256C82.6165 77.0359 82.7032 77.0324 82.801 77.115L85.6247 79.4998L92.3703 81.1341C92.5094 81.1678 92.5342 81.2376 92.4447 81.3436L92.0731 81.7836C92.0111 81.8569 91.914 81.8727 91.7818 81.8308L86.1329 80.4107L86.0813 80.4718L88.4369 85.7913C88.5003 85.9146 88.501 86.013 88.439 86.0863L88.0571 86.5386C87.9814 86.6282 87.9084 86.6155 87.8381 86.5003L85.1085 80.111L82.2848 77.7262C82.187 77.6436 82.1726 77.5616 82.2414 77.4801Z" fill="black"/>
<path d="M74.7045 84.4763L77.3035 82.3722C77.8423 81.9359 78.3968 81.7478 78.9669 81.8077C79.5287 81.8744 80.0311 82.1814 80.474 82.7285L82.7494 85.5389C83.1923 86.0861 83.388 86.6414 83.3363 87.2047C83.2763 87.7748 82.9769 88.278 82.438 88.7142L81.3686 89.5801C80.8297 90.0163 80.2752 90.2045 79.7052 90.1445C79.1351 90.0845 78.6285 89.781 78.1856 89.2338L76.907 87.6545C76.8264 87.555 76.8359 87.465 76.9354 87.3845L80.6162 84.4044C80.6909 84.344 80.698 84.2765 80.6376 84.2019L79.8623 83.2443C79.5469 82.8547 79.2024 82.6326 78.8289 82.5782C78.4622 82.532 78.0881 82.6633 77.7068 82.972L75.1575 85.0359C75.0663 85.1098 74.9838 85.1011 74.91 85.0099L74.6784 84.7239C74.6046 84.6327 74.6133 84.5502 74.7045 84.4763ZM81.019 84.9018L77.9225 87.4087C77.8479 87.4691 77.8408 87.5366 77.9012 87.6112L78.7973 88.718C79.1127 89.1076 79.4538 89.3255 79.8206 89.3717C80.1941 89.4262 80.5715 89.299 80.9528 88.9903L81.9352 88.1949C82.3166 87.8862 82.5195 87.5435 82.544 87.1669C82.5751 86.7985 82.433 86.4195 82.1175 86.0299L81.2215 84.9231C81.1611 84.8485 81.0936 84.8414 81.019 84.9018Z" fill="black"/>
<path d="M69.9421 87.2774L70.8461 86.7964C71.4582 86.4707 72.0384 86.3916 72.5866 86.5591C73.1254 86.7315 73.5602 87.1285 73.8908 87.75L75.5893 90.9423C75.92 91.5638 76.0063 92.1461 75.8483 92.6894C75.6808 93.2376 75.2911 93.6745 74.679 94.0002L71.6845 95.5935C71.5903 95.6436 71.5131 95.6121 71.453 95.4991L67.8005 88.6343C67.7404 88.5213 67.7574 88.4397 67.8516 88.3896L68.2612 88.1717C68.3648 88.1166 68.4467 88.1455 68.5068 88.2585L68.8074 88.8235L68.8639 88.7935C68.8482 88.1735 69.2076 87.6682 69.9421 87.2774ZM69.4913 90.1089L71.8436 94.5301C71.8887 94.6148 71.9584 94.6322 72.0525 94.5821L74.2843 93.3946C74.7175 93.1642 74.9819 92.8664 75.0776 92.5013C75.1734 92.1362 75.1035 91.7324 74.868 91.2898L73.1996 88.154C72.9641 87.7114 72.6683 87.4278 72.312 87.3033C71.9557 87.1787 71.561 87.2316 71.1278 87.4621L70.2097 87.9506C69.7577 88.1911 69.4672 88.4967 69.3382 88.8674C69.2048 89.2525 69.2558 89.6663 69.4913 90.1089Z" fill="black"/>
<path d="M64.9377 89.613L65.3766 89.4626C65.4775 89.428 65.5487 89.4713 65.5902 89.5924L68.1099 96.9489C68.1514 97.0699 68.1216 97.1478 68.0207 97.1823L67.5818 97.3327C67.4708 97.3707 67.3945 97.3292 67.353 97.2081L67.1353 96.5723L67.0747 96.5931C67.0363 96.843 66.9035 97.0971 66.6762 97.3553C66.4524 97.6237 66.1337 97.8287 65.7199 97.9704L65.1296 98.1726C65.0186 98.2106 64.9441 98.1741 64.9061 98.0631L64.7816 97.6998C64.7436 97.5888 64.7818 97.5194 64.8963 97.4914L65.6077 97.2478C66.1022 97.0784 66.4389 96.794 66.6177 96.3944C66.7865 95.9984 66.7827 95.543 66.6065 95.0284L64.8334 89.8516C64.7919 89.7305 64.8267 89.651 64.9377 89.613Z" fill="black"/>
<path d="M58.1493 91.3634L60.8842 90.8433C60.9995 90.8213 61.0681 90.868 61.09 90.9833L61.1588 91.3448C61.1787 91.4496 61.131 91.513 61.0158 91.5349L58.3594 92.0401C57.4163 92.2194 57.0145 92.6759 57.154 93.4094L57.2257 93.7866C57.3553 94.4678 57.7334 94.8573 58.3601 94.9553L60.4683 95.3361C61.0426 95.444 61.4719 95.6175 61.7563 95.8566C62.0301 96.0977 62.2149 96.4697 62.3106 96.9727C62.5437 98.1987 61.9844 98.9403 60.6327 99.1974L58.0863 99.6817C57.971 99.7036 57.9024 99.6569 57.8805 99.5416L57.8118 99.1801C57.7918 99.0753 57.8395 99.012 57.9548 98.9901L60.4225 98.5207C60.8522 98.439 61.1591 98.2829 61.3433 98.0525C61.517 97.824 61.5799 97.584 61.5321 97.3325L61.4633 96.971C61.4075 96.6776 61.2851 96.462 61.096 96.3242C60.8965 96.1884 60.6181 96.0948 60.2608 96.0433L58.1466 95.6311C57.5678 95.5566 57.1554 95.3581 56.9095 95.0357C56.6552 94.7258 56.4682 94.2565 56.3486 93.6277C56.229 92.999 56.3185 92.4988 56.617 92.1272C56.905 91.7575 57.4157 91.5029 58.1493 91.3634Z" fill="black"/>
<path d="M46.267 91.7187L47.637 91.8478C48.3272 91.9128 48.8551 92.1661 49.2206 92.6077C49.5755 93.0483 49.72 93.619 49.6539 94.3199L49.3147 97.9199C49.2486 98.6208 49.0001 99.1545 48.5691 99.5211C48.1276 99.8866 47.5616 100.037 46.8714 99.9718L45.5014 99.8427C44.8112 99.7776 44.2833 99.5243 43.9177 99.0827C43.5522 98.6412 43.4025 98.0699 43.4686 97.369L43.8078 93.769C43.8739 93.0681 44.1277 92.5349 44.5692 92.1694C45.0108 91.8038 45.5767 91.6536 46.267 91.7187ZM47.5057 92.5586L46.2632 92.4415C45.7747 92.3955 45.3905 92.4932 45.1106 92.7346C44.8191 92.9857 44.6498 93.3608 44.6028 93.86L44.2665 97.4282C44.2195 97.9273 44.3162 98.3221 44.5567 98.6126C44.7855 98.9127 45.1442 99.0858 45.6327 99.1318L46.8752 99.2489C47.3637 99.295 47.7484 99.1919 48.0293 98.9398C48.3092 98.6984 48.4726 98.3281 48.5197 97.829L48.8559 94.2608C48.903 93.7617 48.8121 93.362 48.5832 93.0619C48.3534 92.7724 47.9942 92.6046 47.5057 92.5586Z" fill="black"/>
<path d="M38.2327 98.6256L36.8205 98.2713C36.6964 98.2401 36.6486 98.1676 36.6771 98.0538L36.7667 97.6969C36.7953 97.5831 36.8716 97.5418 36.9958 97.5729L38.408 97.9273C38.5011 97.9506 38.5593 97.9158 38.5827 97.8226L40.3117 90.9323C40.3428 90.8081 40.4153 90.7603 40.5291 90.7889L40.9792 90.9018C41.093 90.9304 41.1343 91.0067 41.1031 91.1309L39.3742 98.0212C39.3508 98.1144 39.3857 98.1726 39.4788 98.196L40.472 98.4452C40.5858 98.4737 40.6284 98.5449 40.5999 98.6587L40.5103 99.0157C40.4817 99.1295 40.4106 99.1721 40.2968 99.1435L39.3036 98.8943C39.2104 98.871 39.1522 98.9058 39.1288 98.9989L38.9575 99.6818C38.594 101.13 37.7554 101.69 36.4414 101.36L36.069 101.266C35.9448 101.235 35.897 101.163 35.9256 101.049L36.0151 100.692C36.0437 100.578 36.1201 100.537 36.2442 100.568L36.5391 100.642C37.0046 100.759 37.3617 100.716 37.6102 100.515C37.8587 100.313 38.0466 99.9591 38.1738 99.4521L38.3374 98.8003C38.3607 98.7072 38.3259 98.649 38.2327 98.6256Z" fill="black"/>
<path d="M28.6576 85.6286L32.9921 88.0066C33.0857 88.0579 33.1016 88.1397 33.0401 88.2519L28.2764 96.9351C28.2149 97.0473 28.1373 97.0777 28.0438 97.0264L23.7092 94.6484C23.597 94.5869 23.5691 94.5047 23.6256 94.4018L23.8026 94.0792C23.859 93.9763 23.9433 93.9556 24.0555 94.0172L27.6887 96.0104C27.7822 96.0617 27.8521 96.0453 27.8983 95.9611L29.6683 92.7347C29.7144 92.6506 29.6908 92.5828 29.5973 92.5315L26.3569 90.7538C26.254 90.6974 26.2308 90.6177 26.2872 90.5149L26.4642 90.1922C26.5206 90.0894 26.6003 90.0661 26.7032 90.1226L29.9436 91.9003C30.0371 91.9516 30.1069 91.9352 30.1531 91.851L32.0155 88.4563C32.0616 88.3721 32.038 88.3044 31.9445 88.2531L28.3113 86.2599C28.1991 86.1983 28.1712 86.1161 28.2276 86.0132L28.4046 85.6906C28.461 85.5877 28.5454 85.5671 28.6576 85.6286Z" fill="black"/>
<path d="M26.7199 84.3471L27.1816 84.7176C27.2898 84.8043 27.2705 84.8709 27.1239 84.9174L22.831 86.5602L22.1699 90.9121C22.1563 91.0653 22.0954 91.0985 21.9873 91.0118L21.538 90.6513C21.4465 90.5778 21.4159 90.4712 21.4461 90.3313L22.0787 86.654L22.0288 86.614L18.6383 88.0782C18.4999 88.1313 18.3892 88.1245 18.306 88.0577L17.8567 87.6972C17.7486 87.6104 17.7678 87.5438 17.9145 87.4974L21.9624 85.9042L22.6314 81.3124C22.6533 81.1659 22.7141 81.1327 22.814 81.2128L23.3131 81.6133C23.3797 81.6667 23.3979 81.7634 23.3677 81.9033L22.7097 85.7654L22.7597 85.8055L26.3876 84.3266C26.5259 84.2735 26.6367 84.2803 26.7199 84.3471Z" fill="black"/>
<path d="M23.021 77.9627L23.327 78.3115C23.3973 78.3917 23.3884 78.4705 23.3002 78.5479L15.6505 85.2585C15.5543 85.343 15.471 85.3451 15.4007 85.2649L15.0947 84.9161C15.0173 84.8279 15.0267 84.7416 15.123 84.6572L15.6041 84.2351L15.5619 84.187C14.9479 84.3283 14.3737 84.0942 13.8391 83.4848L13.1216 82.6669C12.6714 82.1537 12.4685 81.6151 12.5129 81.0511C12.5574 80.4871 12.8442 79.973 13.3734 79.5087L16.0917 77.1241C16.6209 76.6599 17.168 76.4424 17.733 76.4718C18.298 76.5012 18.8056 76.7725 19.2558 77.2857L19.9733 78.1036C20.5079 78.713 20.6652 79.3128 20.4452 79.9031L20.4874 79.9512L22.7726 77.9465C22.8608 77.8691 22.9436 77.8745 23.021 77.9627ZM19.4848 78.6385L18.7884 77.8447C18.4648 77.4758 18.1184 77.2831 17.7491 77.2665C17.3647 77.2489 16.9801 77.409 16.5952 77.7466L13.9251 80.089C13.5402 80.4267 13.3354 80.7837 13.3108 81.16C13.2712 81.5353 13.4131 81.9074 13.7367 82.2763L14.4331 83.0701C14.7707 83.455 15.1423 83.6682 15.5477 83.7099C15.9381 83.7505 16.3217 83.6055 16.6986 83.2749L19.3928 80.9114C19.7697 80.5808 19.9674 80.2158 19.986 79.8164C19.9895 79.416 19.8224 79.0234 19.4848 78.6385Z" fill="black"/>
<path d="M13.7824 69.1362L15.4694 72.0235C15.8191 72.6222 15.9212 73.1987 15.7757 73.7532C15.6248 74.2984 15.2455 74.7486 14.6376 75.1037L11.5154 76.9279C10.9076 77.283 10.3291 77.3924 9.78003 77.2561C9.22558 77.1106 8.77348 76.7385 8.42372 76.1399L7.72958 74.9518C7.37982 74.3532 7.2777 73.7766 7.4232 73.2222C7.56871 72.6677 7.94539 72.2129 8.55325 71.8578L10.3078 70.8327C10.4183 70.7681 10.5058 70.7911 10.5704 70.9016L12.9595 74.9909C13.0079 75.0738 13.0736 75.091 13.1565 75.0426L14.2202 74.4211C14.6531 74.1682 14.9247 73.8612 15.035 73.5003C15.1361 73.1447 15.0629 72.7551 14.8154 72.3315L13.1608 69.4994C13.1016 69.3981 13.1226 69.3178 13.224 69.2587L13.5417 69.073C13.643 69.0138 13.7233 69.0349 13.7824 69.1362ZM12.4069 75.3137L10.3971 71.8738C10.3487 71.7909 10.2831 71.7737 10.2002 71.8221L8.97063 72.5405C8.53776 72.7934 8.27077 73.0976 8.16967 73.4531C8.05935 73.8141 8.12795 74.2064 8.37547 74.6301L9.01311 75.7214C9.26063 76.1451 9.56869 76.3975 9.93729 76.4786C10.2967 76.5651 10.6928 76.482 11.1257 76.229L12.3552 75.5107C12.4381 75.4623 12.4553 75.3966 12.4069 75.3137Z" fill="black"/>
<path d="M12.493 66.369L12.6622 66.801C12.701 66.9004 12.6609 66.9734 12.5417 67.02L5.30099 69.8552C5.1818 69.9019 5.10276 69.8756 5.06387 69.7762L4.89469 69.3442C4.85191 69.2349 4.89012 69.157 5.00931 69.1103L5.63505 68.8653L5.61171 68.8057C5.36035 68.7781 5.10076 68.6564 4.83295 68.4405C4.5552 68.2285 4.3366 67.9189 4.17715 67.5117L3.94963 66.9306C3.90685 66.8213 3.94009 66.7453 4.04935 66.7025L4.40691 66.5625C4.51617 66.5198 4.58722 66.5549 4.62007 66.6681L4.89425 67.3683C5.08482 67.855 5.38354 68.1791 5.79041 68.3405C6.19339 68.492 6.64815 68.4686 7.1547 68.2702L12.25 66.2751C12.3692 66.2284 12.4502 66.2597 12.493 66.369Z" fill="black"/>
<path d="M1.82921 64.6997L0.348772 65.1091C0.235683 65.1404 0.164924 65.1046 0.136495 65.0018L0.00856631 64.5391C-0.0198624 64.4363 0.0224678 64.3693 0.135557 64.338L1.616 63.9286C1.73937 63.8945 1.81527 63.9289 1.8437 64.0317L1.97163 64.4943C2.00006 64.5971 1.95259 64.6656 1.82921 64.6997ZM10.8044 62.2179L3.30966 64.2903C3.18629 64.3245 3.11039 64.2901 3.08196 64.1873L2.95829 63.7401C2.92702 63.627 2.97307 63.5534 3.09644 63.5193L10.5912 61.4468C10.7146 61.4127 10.7905 61.4471 10.8189 61.5499L10.9468 62.0125C10.9752 62.1153 10.9278 62.1838 10.8044 62.2179Z" fill="black"/>
<path d="M9.53962 53.6009L9.99198 56.9142C10.0858 57.6012 9.95927 58.1729 9.6125 58.6293C9.26428 59.0752 8.7414 59.3457 8.04387 59.4409L4.46111 59.9301C3.76358 60.0253 3.18732 59.9048 2.73232 59.5686C2.27588 59.2219 2.00077 58.705 1.90698 58.018L1.72084 56.6547C1.62705 55.9677 1.75355 55.396 2.10032 54.9396C2.4471 54.4831 2.96925 54.2073 3.66678 54.1121L5.6801 53.8372C5.80693 53.8199 5.879 53.8746 5.89631 54.0015L6.53697 58.6939C6.54996 58.789 6.60401 58.8301 6.69913 58.8171L7.9198 58.6505C8.41653 58.5826 8.78497 58.4032 9.02512 58.112C9.25471 57.8223 9.33631 57.4343 9.26994 56.9482L8.82624 53.6983C8.81037 53.5821 8.86056 53.516 8.97681 53.5001L9.34143 53.4504C9.45768 53.4345 9.52375 53.4847 9.53962 53.6009ZM5.90285 58.7805L5.36392 54.8331C5.35093 54.738 5.29688 54.6969 5.20177 54.7099L3.79085 54.9026C3.29413 54.9704 2.93097 55.1491 2.70139 55.4389C2.46123 55.73 2.37434 56.1187 2.44072 56.6048L2.6117 57.8572C2.67808 58.3434 2.86597 58.6945 3.17539 58.9107C3.47423 59.1282 3.87202 59.2031 4.36874 59.1353L5.77965 58.9427C5.87477 58.9297 5.91584 58.8756 5.90285 58.7805Z" fill="black"/>
<path d="M9.47332 50.5532L9.44759 51.0164C9.44167 51.1229 9.37481 51.1726 9.24701 51.1655L1.48298 50.7343C1.35517 50.7272 1.29423 50.6704 1.30015 50.5639L1.32588 50.1006C1.33239 49.9834 1.39954 49.9284 1.52735 49.9355L2.16636 49.971L2.16991 49.9071C1.63266 49.5781 1.38652 49.0089 1.43148 48.1995L1.49005 47.1451C1.52792 46.4635 1.76015 45.9369 2.18675 45.5653C2.61335 45.1938 3.1781 45.0275 3.88102 45.0665L9.56825 45.3825C9.69605 45.3896 9.757 45.4464 9.75108 45.5529L9.72535 46.0161C9.71884 46.1333 9.65168 46.1883 9.52388 46.1812L3.8686 45.8671C3.36804 45.8393 2.9722 45.9455 2.6811 46.1857C2.38999 46.4259 2.23083 46.791 2.20362 47.2809L2.14594 48.3193C2.11754 48.8305 2.23351 49.2429 2.49385 49.5565C2.74414 49.8589 3.11956 50.0239 3.62012 50.0517L9.29138 50.3668C9.41918 50.3739 9.47983 50.436 9.47332 50.5532Z" fill="black"/>
<path d="M10.6028 38.5569L10.9611 38.6406C11.0754 38.6673 11.1192 38.7378 11.0924 38.8521L10.5679 41.0956C10.4101 41.7707 10.0877 42.2595 9.60075 42.5619C9.11621 42.8539 8.53119 42.9198 7.84567 42.7596L4.32461 41.9364C3.6391 41.7761 3.14392 41.4577 2.83907 40.9811C2.53665 40.4942 2.46436 39.9131 2.6222 39.238L3.14669 36.9945C3.17341 36.8802 3.24389 36.8364 3.35814 36.8632L3.73206 36.9506C3.83592 36.9749 3.8745 37.0441 3.84779 37.1584L3.33786 39.3396C3.22616 39.8173 3.2762 40.2124 3.48797 40.5249C3.69975 40.8373 4.04972 41.0505 4.53789 41.1647L7.99663 41.9733C8.4848 42.0874 8.89305 42.0514 9.22138 41.8652C9.54971 41.6791 9.76972 41.3471 9.88142 40.8694L10.3913 38.6882C10.4181 38.5739 10.4885 38.5301 10.6028 38.5569Z" fill="black"/>
<path d="M13.8533 32.0711L12.5408 35.1468C12.2687 35.7845 11.8666 36.2102 11.3348 36.4239C10.807 36.6278 10.2194 36.5916 9.57192 36.3153L6.24609 34.896C5.59859 34.6197 5.16588 34.2205 4.94798 33.6984C4.73427 33.1665 4.76347 32.5817 5.0356 31.944L5.57568 30.6784C5.84781 30.0407 6.24982 29.615 6.78172 29.4013C7.31362 29.1876 7.90332 29.2189 8.55083 29.4952L10.4198 30.2928C10.5375 30.343 10.5712 30.427 10.521 30.5447L8.66214 34.9007C8.62446 34.989 8.64977 35.0519 8.73807 35.0896L9.8712 35.5732C10.3323 35.77 10.7406 35.805 11.0962 35.6784C11.4419 35.5476 11.7111 35.2566 11.9037 34.8053L13.1911 31.7885C13.2371 31.6806 13.3141 31.6497 13.422 31.6957L13.7605 31.8402C13.8684 31.8862 13.8994 31.9632 13.8533 32.0711ZM8.0735 34.6495L9.6372 30.9852C9.67488 30.8969 9.64958 30.8339 9.56128 30.7962L8.25155 30.2373C7.79045 30.0405 7.38702 30.0075 7.04128 30.1383C6.68572 30.2649 6.41165 30.5539 6.21906 31.0052L5.72295 32.1677C5.53036 32.619 5.51137 33.0168 5.66597 33.3611C5.81076 33.7013 6.1137 33.9697 6.57481 34.1665L7.88454 34.7254C7.97283 34.7631 8.03582 34.7378 8.0735 34.6495Z" fill="black"/>
</svg>
