<svg width="20" height="20" viewBox="0 0 20 20" fill="none" xmlns="http://www.w3.org/2000/svg">
<path d="M10 0C15.5228 0 20 4.47715 20 10C20 15.5228 15.5228 20 10 20C4.47715 20 0 15.5228 0 10C0 4.47715 4.47715 0 10 0ZM10 1C5.02944 1 1 5.02944 1 10C1 14.9706 5.02944 19 10 19C14.9706 19 19 14.9706 19 10C19 5.02944 14.9706 1 10 1ZM12.0928 4C12.6489 4.00004 13.6077 4.10723 14 4.21387V6.59277C13.7928 6.57151 13.4331 6.56152 12.9863 6.56152C11.5479 6.56155 10.9913 7.09463 10.9912 8.48145V9.41016H13.8574L13.3652 12.0352H10.9912V17.9375C10.6428 17.9786 10.2885 18 9.92871 18C9.19796 18 8.48828 17.9117 7.80957 17.7471V12.0352H6V9.41016H7.80957V8.2793C7.80957 5.3557 9.16099 4 12.0928 4Z" fill="white"/>
</svg>
