<svg width="30" height="20" viewBox="0 0 30 20" fill="none" xmlns="http://www.w3.org/2000/svg">
<path fill-rule="evenodd" clip-rule="evenodd" d="M1.63086 1.21641e-06H24.4824C24.6954 -0.000262279 24.9062 0.042285 25.1025 0.125139C25.3023 0.210431 25.4832 0.334696 25.6348 0.490739C25.7883 0.641713 25.9106 0.82182 25.9944 1.02062C26.0782 1.21942 26.1219 1.43297 26.123 1.64888V6.47773C26.123 6.51808 26.1071 6.55678 26.0787 6.58531C26.0503 6.61383 26.0118 6.62986 25.9717 6.62986C25.9495 6.62946 25.9276 6.62445 25.9075 6.61516C25.8873 6.60587 25.8693 6.5925 25.8545 6.57588C25.7107 6.42217 25.5463 6.28922 25.3662 6.18084C25.1857 6.07397 24.992 5.99147 24.79 5.93547C24.7588 5.92613 24.7314 5.90708 24.7117 5.88107C24.6919 5.85505 24.6809 5.82341 24.6802 5.7907V2.41934L17.3145 8.72286L16.2231 9.65771L13.7305 11.7924C13.602 11.9011 13.4394 11.9607 13.2715 11.9607C13.1035 11.9607 12.941 11.9011 12.8125 11.7924L10.1855 9.6528L2.28272 17.6175H12.9224C12.9421 17.6171 12.9618 17.6208 12.9801 17.6282C12.9985 17.6355 13.0152 17.6465 13.0293 17.6604C13.0433 17.6744 13.0545 17.691 13.0622 17.7093C13.0698 17.7276 13.0737 17.7473 13.0737 17.7671V17.8138C13.0322 17.9953 12.9932 18.1769 12.959 18.3585C12.9248 18.5376 12.8931 18.729 12.8638 18.9277C12.858 18.9633 12.8399 18.9956 12.8126 19.019C12.7853 19.0423 12.7507 19.0552 12.7148 19.0553H1.63086C1.41713 19.0556 1.20549 19.0131 1.0083 18.9302C0.814467 18.8473 0.638015 18.7282 0.488284 18.5793C0.333288 18.4277 0.20966 18.2467 0.124514 18.0469C0.0419452 17.8487 -0.000387793 17.636 2.67675e-06 17.4212V1.63906C2.67675e-06 1.42428 0.0423205 1.21163 0.124514 1.01337C0.211363 0.817364 0.334856 0.63994 0.488284 0.490739C0.637165 0.337043 0.813599 0.213001 1.0083 0.125139C1.20549 0.0422812 1.41713 -0.00025958 1.63086 1.21641e-06ZM15.8984 14.2976L21.5137 20V17.1586C25.0635 16.4225 27.8613 17.2347 30 19.9485C29.6313 14.3663 25.835 11.6722 21.5137 11.4931V8.5879L15.8984 14.2878V14.2976ZM1.43799 16.4397L9.06983 8.73758L1.43799 2.48313V16.4397ZM2.44141 1.44522L13.2544 10.3055L23.606 1.44522H2.44141Z" fill="white"/>
</svg>
