<svg width="14" height="20" viewBox="0 0 14 20" fill="none" xmlns="http://www.w3.org/2000/svg">
<path fill-rule="evenodd" clip-rule="evenodd" d="M4.47702 15.7171C5.18858 16.8628 5.9581 18.2511 6.71796 19.6004C6.99969 20.0984 7.25405 20.1733 7.59212 19.5825C8.32622 18.2951 9.04744 16.9621 9.8073 15.7187C12.1143 11.9444 15.8894 8.26455 12.887 3.18499C10.221 -1.32492 2.97018 -0.843168 0.801678 3.35589C-1.68396 8.16852 2.19744 12.0486 4.47702 15.7171Z" fill="white"/>
<path fill-rule="evenodd" clip-rule="evenodd" d="M6.99647 4.16602C8.49526 4.16602 9.71072 5.39481 9.71072 6.91005C9.71072 8.42529 8.49526 9.65408 6.99647 9.65408C5.49768 9.65408 4.28223 8.42529 4.28223 6.91005C4.28223 5.39481 5.49768 4.16602 6.99647 4.16602Z" fill="#626262"/>
</svg>
