<svg width="20" height="20" viewBox="0 0 20 20" fill="none" xmlns="http://www.w3.org/2000/svg">
<path d="M14.5969 11.9931C14.3519 11.8612 13.127 11.2625 12.8923 11.1813C12.6575 11.1001 12.5044 11.0595 12.3308 11.3132C12.1573 11.5669 11.6878 12.1149 11.5448 12.2773C11.4019 12.4397 11.259 12.4701 11.0038 12.3483C10.2582 12.0526 9.56803 11.634 8.96231 11.1103C8.41521 10.6114 7.94717 10.0332 7.57407 9.39522C7.43116 9.15166 7.57407 9.01974 7.68636 8.89796C7.79864 8.77618 7.93134 8.60367 8.06404 8.46159C8.16713 8.33652 8.2498 8.19612 8.30902 8.04552C8.34476 7.98011 8.36348 7.90685 8.36348 7.83241C8.36348 7.75797 8.34476 7.68471 8.30902 7.6193C8.24777 7.48737 7.7476 6.2696 7.54345 5.77234C7.33929 5.27508 7.13514 5.35627 6.98203 5.34612H6.50227C6.37682 5.35021 6.25347 5.37926 6.13951 5.43155C6.02555 5.48384 5.92329 5.55831 5.83877 5.65056C5.56257 5.91216 5.34311 6.22716 5.1939 6.5762C5.04469 6.92524 4.96887 7.30094 4.97112 7.68019C5.05655 8.61257 5.41101 9.50059 5.99189 10.2375C7.04573 11.8366 8.49812 13.1372 10.2076 14.0126C10.7997 14.2663 11.2284 14.4185 11.6265 14.5403C12.1363 14.6903 12.6734 14.725 13.1985 14.6418C13.5445 14.5719 13.872 14.4312 14.1602 14.2285C14.4484 14.0258 14.691 13.7657 14.8725 13.4646C15.0404 13.0962 15.0937 12.6862 15.0256 12.2874C14.9644 12.1758 14.8011 12.1149 14.5459 11.983L14.5969 11.9931ZM17.108 2.91057C15.3987 1.20803 13.1251 0.18135 10.7108 0.0218356C8.29653 -0.137678 5.90625 0.580851 3.98535 2.04354C2.06445 3.50624 0.743955 5.61333 0.269899 7.9722C-0.204157 10.3311 0.200565 12.7808 1.40865 14.8651L0 20L5.27735 18.6199C6.74277 19.4012 8.38146 19.8059 10.0443 19.797C12.0143 19.7937 13.9391 19.2103 15.5759 18.1207C17.2128 17.031 18.4884 15.4838 19.2418 13.6742C19.9952 11.8646 20.1927 9.87378 19.8093 7.95277C19.4259 6.03176 18.4789 4.26665 17.0876 2.88013L17.108 2.91057ZM10.0545 18.1327C8.5701 18.1318 7.11351 17.7321 5.83877 16.9759L5.53254 16.8033L2.3988 17.6152L3.23582 14.5708L3.06229 14.2968C2.22407 12.9868 1.78125 11.4653 1.78634 9.91277C1.78703 8.2835 2.27352 6.69101 3.18433 5.33654C4.09514 3.98207 5.38939 2.92643 6.9035 2.30303C8.41762 1.67962 10.0836 1.51644 11.691 1.83411C13.2984 2.15178 14.775 2.93603 15.9341 4.08775C16.7112 4.84767 17.3275 5.75457 17.7465 6.75499C18.1655 7.75541 18.3787 8.82911 18.3738 9.91277C18.3684 12.0975 17.4937 14.1914 15.9408 15.7372C14.3878 17.283 12.2827 18.1552 10.0852 18.1632L10.0545 18.1327Z" fill="white"/>
</svg>
