<svg width="20" height="20" viewBox="0 0 20 20" fill="none" xmlns="http://www.w3.org/2000/svg">
<g clip-path="url(#clip0_2826_174)">
<path d="M10 0C12.762 0 15.262 1.11979 17.0703 2.92969C18.8802 4.73958 20 7.23958 20 10C20 12.7604 18.8802 15.262 17.0703 17.0703C15.2604 18.8802 12.7604 20 10 20C7.23796 20 4.73796 18.8802 2.92969 17.0703C1.11979 15.262 0 12.762 0 10C0 7.23796 1.11979 4.73796 2.92969 2.92969C4.73796 1.11979 7.23796 0 10 0ZM7.82878 9.14551C8.1543 9.73145 8.52865 10.2946 9.0153 10.8073C9.50195 11.3232 10.1091 11.7936 10.8952 12.194C10.9521 12.2233 11.0091 12.2233 11.0579 12.2021C11.1328 12.1729 11.2077 12.1126 11.2842 12.0378C11.3411 11.9808 11.4144 11.8864 11.4909 11.7855C11.792 11.3883 12.1663 10.8952 12.6937 11.141C12.7051 11.1458 12.7148 11.1523 12.7262 11.1589L14.4857 12.1712C14.4906 12.1745 14.4971 12.1794 14.5036 12.1826C14.7363 12.3421 14.8324 12.5879 14.834 12.8662C14.834 13.151 14.7298 13.4701 14.5768 13.7386C14.3734 14.0951 14.0755 14.3294 13.7305 14.4873C13.4033 14.637 13.0371 14.7184 12.6872 14.7705C12.137 14.8519 11.6211 14.7998 11.0921 14.637C10.5762 14.4775 10.0553 14.2122 9.48893 13.8623L9.44824 13.8363C9.18783 13.6735 8.90625 13.4993 8.62956 13.2943C7.61882 12.5326 6.58854 11.4307 5.9196 10.2181C5.35645 9.19922 5.05046 8.10059 5.21647 7.05404C5.30924 6.47949 5.55664 5.95703 5.9847 5.61361C6.35905 5.3125 6.86361 5.14648 7.51628 5.20508C7.59115 5.20996 7.65788 5.25391 7.69369 5.31901L8.82324 7.22656C8.98763 7.44141 9.00879 7.65299 8.91927 7.86458C8.8444 8.03874 8.69303 8.19824 8.48633 8.34961C8.42611 8.40169 8.35286 8.45378 8.27637 8.50911C8.02409 8.69141 7.736 8.903 7.83529 9.15365L7.82878 9.14551ZM15.9993 4.00065C14.4645 2.46582 12.3421 1.5153 10 1.5153C7.65788 1.5153 5.53548 2.46419 4.00065 4.00065C2.46582 5.53548 1.5153 7.65788 1.5153 10C1.5153 12.3421 2.46419 14.4645 4.00065 15.9993C5.53711 17.5342 7.65625 18.4847 10 18.4847C12.3421 18.4847 14.4645 17.5358 15.9993 15.9993C17.5342 14.4645 18.4847 12.3438 18.4847 10C18.4847 7.65788 17.5342 5.53548 15.9993 4.00065Z" fill="white"/>
</g>
<defs>
<clipPath id="clip0_2826_174">
<rect width="20" height="20" fill="white"/>
</clipPath>
</defs>
</svg>
