<svg width="20" height="20" viewBox="0 0 20 20" fill="none" xmlns="http://www.w3.org/2000/svg">
<path fill-rule="evenodd" clip-rule="evenodd" d="M4.74638 9.87466C7.66162 8.60434 9.60537 7.76723 10.578 7.36255C13.3554 6.20747 13.9323 6.00669 14.3085 6.00005C14.3913 5.99887 14.5761 6.01919 14.696 6.11645C14.7972 6.19848 14.8249 6.30942 14.8382 6.38716C14.8515 6.46528 14.8683 6.64223 14.855 6.78091C14.7046 8.36216 14.0534 12.1993 13.7222 13.9704C13.5819 14.72 13.3058 14.9711 13.0386 14.9957C12.4581 15.0493 12.0171 14.6118 11.4546 14.243C10.5745 13.6665 10.0772 13.3071 9.22295 12.7442C8.23545 12.0934 8.87568 11.736 9.43818 11.1516C9.58545 10.9985 12.144 8.67114 12.1936 8.4602C12.1999 8.43364 12.2058 8.3352 12.1472 8.28325C12.0886 8.2313 12.0022 8.24927 11.9401 8.26333C11.8519 8.28325 10.446 9.21255 7.72216 11.0512C7.32295 11.3254 6.96123 11.4586 6.6374 11.452C6.28037 11.4442 5.59365 11.25 5.0831 11.084C4.45693 10.8805 3.95927 10.7727 4.00263 10.427C4.0249 10.2469 4.27295 10.0629 4.74638 9.87466Z" fill="white"/>
<circle cx="10" cy="10" r="9.5" stroke="white"/>
</svg>
