<svg width="20" height="20" viewBox="0 0 20 20" fill="none" xmlns="http://www.w3.org/2000/svg">
<path d="M0 1.40845C0 0.630586 0.630586 0 1.40845 0H18.5915C19.3694 0 20 0.630586 20 1.40845C20 2.18632 19.3694 2.81691 18.5915 2.81691H1.40845C0.630586 2.81691 0 2.18632 0 1.40845Z" fill="#707070"/>
<path d="M0.0605469 10.0352C0.0605469 9.25736 0.691132 8.62677 1.469 8.62677H18.5916C19.3695 8.62677 20.0001 9.25736 20.0001 10.0352C20.0001 10.8131 19.3695 11.4437 18.5916 11.4437H1.469C0.691133 11.4437 0.0605469 10.8131 0.0605469 10.0352Z" fill="#707070"/>
<path d="M0.0605469 18.5916C0.0605469 17.8137 0.691132 17.1831 1.469 17.1831H18.5916C19.3695 17.1831 20.0001 17.8137 20.0001 18.5916C20.0001 19.3694 19.3695 20 18.5916 20H1.469C0.691133 20 0.0605469 19.3694 0.0605469 18.5916Z" fill="#707070"/>
</svg>
